<svg width="191" height="37" viewBox="0 0 191 37" fill="none" xmlns="http://www.w3.org/2000/svg">
<path d="M157.765 36.6566V0.0800781H166.726C171.52 7.74422 176.721 15.1649 181.568 22.7982C182.108 23.6519 182.587 24.5456 183.167 25.3745C182.994 24.0648 183.077 22.7397 182.942 21.4331V0.0800781H190.795V36.6566H182.426L165.355 10.6256L165.544 13.4638V36.6597H157.765V36.6566Z" fill="white"/>
<path d="M131.254 36.6566L118.811 0.0800781H127.661L127.883 0.597801C130.22 8.94608 133.054 17.168 135.363 25.5225C135.699 26.7366 136.029 27.9447 136.104 29.2112C136.286 29.2112 136.264 29.0726 136.289 28.9524C136.48 28.0125 136.536 27.0325 136.844 26.1141L144.657 0.0800781H153.248L140.734 36.6566H131.254Z" fill="white"/>
<path d="M40.0137 36.6566V0.0800781H61.2672V6.79198H48.2342V14.903H60.3041V21.6118H48.2342V29.9478H62.0821V36.6566H40.0137Z" fill="white"/>
<path d="M94.8154 36.6566V0.0800781H115.995V6.79198H103.036V14.903H115.035V21.6118H103.036V29.9478H116.81V36.6566H94.8154Z" fill="white"/>
<path d="M30.6817 36.6564H11.7218L26.7428 15.8088C27.317 15.1709 26.9157 14.3727 26.1192 14.2433L17.8494 14.2187C17.0406 14.0862 17.2412 13.4267 17.4851 12.8596L24.6807 1.81181C27.2244 -1.12812 34.6083 -0.43782 34.9787 4.17238L34.9664 32.7026C34.7966 34.5578 33.4754 35.7997 31.7745 36.3821L30.6786 36.6564H30.6817Z" fill="white"/>
<path d="M4.53847 36.6568C2.42084 36.4226 0.253812 34.851 0.0284667 32.6291C0.0778576 22.8879 -0.119706 13.122 0.127248 3.39622C0.692156 1.38388 2.71101 0.20051 4.7206 0.077243C8.62248 -0.16621 12.7837 0.259062 16.7133 0.0895697C17.5746 0.188184 18.5068 0.906216 18.5315 1.82148C18.5439 2.28065 17.5746 3.9201 17.2998 4.41317C15.2378 8.08037 12.7559 11.6089 10.6753 15.2977C10.3851 15.8123 9.41273 17.3963 9.42508 17.8894C9.44051 18.4533 10.0116 18.7461 10.5117 18.8046C12.972 19.1036 15.9848 18.6012 18.5037 18.8108C18.8186 18.8509 19.2045 19.045 19.0995 19.4025L10.7185 33.6275C9.62881 35.1653 8.30761 36.4442 6.31963 36.6568C5.8998 36.703 4.96138 36.703 4.54156 36.6568H4.53847Z" fill="white"/>
<path d="M68.0059 36.6566V0.0800781H76.2264V29.9478H89.8551V36.6566H68.0059Z" fill="white"/>
</svg>
